# xmcd
#
# Track frame offsets:
# 150
# 13810
# 27367
#
# Disc length: 550 seconds
#
# Revision: 1
# Processed by: cddbd v1.5.2PL0 Copyright (c) Steve Scherf et al.
# Submitted via: CedeCatalogueitor 2.6.0.6 http://personales.ya.com/cdcatalogueitor
#
DISCID=1c022403
DTITLE=Napoleón Solo - Será Maravilloso
DYEAR=1900
DGENRE=
TTITLE0=Tiene Que Acabar
TTITLE1=Perdiendo El Tiempo
TTITLE2=Lolaila Carmona
EXTD=
EXTT0=
EXTT1=
EXTT2=
PLAYORDER=
